<svg xmlns="http://www.w3.org/2000/svg" width="58mm" height="43mm" viewBox="0 0 58 43">
  <defs>
    <style><![CDATA[
      .main { stroke:#000; stroke-width:0.55; fill:none; stroke-linecap:round; stroke-linejoin:round; }
      .thin { stroke:#000; stroke-width:0.32; fill:none; stroke-linecap:round; stroke-linejoin:round; }
      .dash { stroke:#000; stroke-width:0.28; fill:none; stroke-dasharray:1.2 1.4; stroke-linecap:round; }
      .axis-arrow { fill:#000; stroke:none; }
      .point { fill:#000; stroke:none; }
      .label, .math-label, .axis-label {
        font-family:"CMU Serif","Computer Modern Serif","Latin Modern Roman","Times New Roman",serif;
        fill:#000;
      }
      .label { font-size:3.2px; font-style:normal; }
      .math-label { font-size:3.2px; font-style:normal; }
      .axis-label { font-size:3.8px; font-style:italic; }
    ]]></style>
  </defs>

  <line class="main" x1="7" y1="38" x2="54.2" y2="38"/>
  <polygon class="axis-arrow" points="57,38 54.2,37 54.2,39"/>
  <line class="main" x1="7" y1="38" x2="7" y2="3.8"/>
  <polygon class="axis-arrow" points="7,1 6,3.8 8,3.8"/>

  <text class="label" x="3.6" y="41.6">O</text>
  <text class="axis-label" x="50.8" y="42">t</text>
  <text class="math-label" x="53.1" y="42">[s]</text>
  <text class="axis-label" x="0.8" y="3.5">x</text>
  <text class="math-label" x="3.4" y="3.5">[m]</text>

  <g class="dash">
    <path d="M22 38 V10 H7"/>
    <path d="M29.5 38 V13.5 H7"/>
    <path d="M37 38 V20.5 H7"/>
    <path d="M44.5 38 V27.5 H7"/>
    <path d="M52 38 V38"/>
    <path d="M7 6.5 H7"/>
  </g>

  <g class="label">
    <text x="21.2" y="41.5">2</text>
    <text x="28.7" y="41.5">3</text>
    <text x="36.2" y="41.5">4</text>
    <text x="43.7" y="41.5">5</text>
    <text x="51.2" y="41.5">6</text>
    <text x="2.2" y="7.5">18</text>
    <text x="2.2" y="11">16</text>
    <text x="2.2" y="14.5">14</text>
    <text x="2.2" y="21.5">10</text>
    <text x="3.9" y="28.5">6</text>
  </g>

  <path class="thin" d="M7 6.5 Q29.5 6.5 52 38"/>
  <line class="main" x1="18.25" y1="3" x2="55.75" y2="38"/>

  <circle class="point" cx="7" cy="6.5" r="0.42"/>
  <circle class="point" cx="22" cy="10" r="0.42"/>
  <circle class="point" cx="37" cy="20.5" r="0.42"/>
  <circle class="point" cx="52" cy="38" r="0.42"/>
  <circle class="point" cx="29.5" cy="13.5" r="0.42"/>
  <circle class="point" cx="44.5" cy="27.5" r="0.42"/>
</svg>