<?xml version="1.0" encoding="UTF-8" standalone="no"?>
<svg
   width="80mm"
   height="45mm"
   viewBox="0 0 80 45"
   version="1.1"
   id="svg30"
   sodipodi:docname="lesson_03_scale_tan_01_a.svg"
   inkscape:version="1.3.2 (091e20e, 2023-11-25)"
   xmlns:inkscape="http://www.inkscape.org/namespaces/inkscape"
   xmlns:sodipodi="http://sodipodi.sourceforge.net/DTD/sodipodi-0.dtd"
   xmlns="http://www.w3.org/2000/svg"
   xmlns:svg="http://www.w3.org/2000/svg">
  <sodipodi:namedview
     id="namedview30"
     pagecolor="#ffffff"
     bordercolor="#999999"
     borderopacity="1"
     inkscape:showpageshadow="2"
     inkscape:pageopacity="0"
     inkscape:pagecheckerboard="0"
     inkscape:deskcolor="#d1d1d1"
     inkscape:document-units="mm"
     inkscape:zoom="2.1332031"
     inkscape:cx="140.1648"
     inkscape:cy="52.034426"
     inkscape:window-width="1920"
     inkscape:window-height="1043"
     inkscape:window-x="0"
     inkscape:window-y="0"
     inkscape:window-maximized="1"
     inkscape:current-layer="svg30" />
  <!-- y=tan(2 theta), answer graph: -pi/2 < theta < pi/2 -->
  <defs
     id="defs1">
    <style
       id="style1"><![CDATA[
      .axis { stroke:#000; stroke-width:0.42; fill:none; stroke-linecap:round; }
      .axis-arrow { fill:#000; stroke:none; }
      .tick { stroke:#000; stroke-width:0.30; }
      .curve { stroke:#000; stroke-width:0.42; fill:none; stroke-linecap:round; stroke-linejoin:round; }
      .asymptote { stroke:#000; stroke-width:0.32; fill:none; stroke-dasharray:1.2 1.4; }
      .open-point { fill:#fff; stroke:#000; stroke-width:0.36; }
      .axis-label, .tick-label, .frac-text {
        font-family:"CMU Serif","Latin Modern Roman","Computer Modern Serif",serif;
        fill:#000;
      }
      .axis-label { font-size:3.8px; font-style:italic; }
      .tick-label { font-size:3.0px; font-style:normal; }
      .frac-text { font-size:2.7px; font-style:normal; }
      .frac-line { stroke:#000; stroke-width:0.24; }
    ]]></style>
    <clipPath
       clipPathUnits="userSpaceOnUse"
       id="clipPath30">
      <g
         id="g31"
         style="stroke-width:0.999999">
        <rect
           x="8"
           y="5"
           width="64"
           height="35"
           id="rect30"
           style="stroke-width:0.999999" />
      </g>
    </clipPath>
    <clipPath
       clipPathUnits="userSpaceOnUse"
       id="clipPath31">
      <g
         id="g32"
         style="stroke-width:0.999999">
        <rect
           x="8"
           y="5"
           width="64"
           height="35"
           id="rect31"
           style="stroke-width:0.999999" />
      </g>
    </clipPath>
    <clipPath
       clipPathUnits="userSpaceOnUse"
       id="clipPath32">
      <g
         id="g33"
         style="stroke-width:0.999999">
        <rect
           x="8"
           y="5"
           width="64"
           height="35"
           id="rect32"
           style="stroke-width:0.999999" />
      </g>
    </clipPath>
    <clipPath
       clipPathUnits="userSpaceOnUse"
       id="clipPath33">
      <g
         id="g34"
         style="stroke-width:0.999999">
        <rect
           x="8"
           y="5"
           width="64"
           height="35"
           id="rect33"
           style="stroke-width:0.999999" />
      </g>
    </clipPath>
    <clipPath
       clipPathUnits="userSpaceOnUse"
       id="clipPath34">
      <g
         id="g35"
         style="stroke-width:0.999999">
        <rect
           x="8"
           y="5"
           width="64"
           height="35"
           id="rect34"
           style="stroke-width:0.999999" />
      </g>
    </clipPath>
    <clipPath
       clipPathUnits="userSpaceOnUse"
       id="clipPath35">
      <g
         id="g36"
         style="stroke-width:0.999999">
        <rect
           x="8"
           y="5"
           width="64"
           height="35"
           id="rect35"
           style="stroke-width:0.999999" />
      </g>
    </clipPath>
    <clipPath
       clipPathUnits="userSpaceOnUse"
       id="clipPath36">
      <g
         id="g37"
         style="stroke-width:0.999999">
        <rect
           x="8"
           y="5"
           width="64"
           height="35"
           id="rect36"
           style="stroke-width:0.999999" />
      </g>
    </clipPath>
  </defs>
  <line
     class="axis"
     x1="6"
     y1="22.5"
     x2="72.8"
     y2="22.5"
     id="line1" />
  <polygon
     class="axis-arrow"
     points="75,22.5 72.3,21.55 72.3,23.45"
     id="polygon1" />
  <line
     class="axis"
     x1="40"
     y1="41"
     x2="40"
     y2="5.8"
     id="line2" />
  <polygon
     class="axis-arrow"
     points="40,3.6 39.05,6.3 40.95,6.3"
     id="polygon2" />
  <line
     class="tick"
     x1="8"
     y1="22"
     x2="8"
     y2="23"
     id="line3" />
  <line
     class="tick"
     x1="16"
     y1="22"
     x2="16"
     y2="23"
     id="line4" />
  <line
     class="tick"
     x1="32"
     y1="22"
     x2="32"
     y2="23"
     id="line6" />
  <line
     class="tick"
     x1="48"
     y1="22"
     x2="48"
     y2="23"
     id="line7" />
  <line
     class="tick"
     x1="64"
     y1="22"
     x2="64"
     y2="23"
     id="line9" />
  <line
     class="tick"
     x1="72"
     y1="22"
     x2="72"
     y2="23"
     id="line10" />
  <line
     class="tick"
     x1="39.5"
     y1="14.545"
     x2="40.5"
     y2="14.545"
     id="line11" />
  <line
     class="tick"
     x1="39.5"
     y1="30.455"
     x2="40.5"
     y2="30.455"
     id="line12" />
  <text
     class="tick-label"
     x="36.7"
     y="21.0"
     id="text12">O</text>
  <text
     class="axis-label"
     x="75.8"
     y="23.7"
     id="text13">θ</text>
  <text
     class="axis-label"
     x="42"
     y="5"
     id="text14">y</text>
  <g
     transform="translate(8,25.7)"
     id="g16">
    <text
       class="frac-text"
       x="0"
       y="0"
       text-anchor="middle"
       id="text15">−π</text>
    <line
       class="frac-line"
       x1="-2.8"
       y1="0.7"
       x2="2.8"
       y2="0.7"
       id="line15" />
    <text
       class="frac-text"
       x="0"
       y="3.0"
       text-anchor="middle"
       id="text16">2</text>
  </g>
  <g
     transform="translate(27.598722,25.7)"
     id="g18">
    <text
       class="frac-text"
       x="0"
       y="0"
       text-anchor="middle"
       id="text17">−π</text>
    <line
       class="frac-line"
       x1="-2.8"
       y1="0.69999999"
       x2="2.8"
       y2="0.69999999"
       id="line17" />
    <text
       class="frac-text"
       x="0"
       y="3"
       text-anchor="middle"
       id="text18">4</text>
  </g>
  <g
     transform="translate(52.541235,25.7)"
     id="g20">
    <text
       class="frac-text"
       x="0"
       y="0"
       text-anchor="middle"
       id="text19">π</text>
    <line
       class="frac-line"
       x1="-2.2"
       y1="0.69999999"
       x2="2.2"
       y2="0.69999999"
       id="line19" />
    <text
       class="frac-text"
       x="0"
       y="3"
       text-anchor="middle"
       id="text20">4</text>
  </g>
  <g
     transform="translate(72,25.7)"
     id="g22">
    <text
       class="frac-text"
       x="0"
       y="0"
       text-anchor="middle"
       id="text21">π</text>
    <line
       class="frac-line"
       x1="-2.2"
       y1="0.7"
       x2="2.2"
       y2="0.7"
       id="line21" />
    <text
       class="frac-text"
       x="0"
       y="3.0"
       text-anchor="middle"
       id="text22">2</text>
  </g>
  <text
     class="tick-label"
     x="38.2"
     y="15.545"
     text-anchor="end"
     id="text23">1</text>
  <text
     class="tick-label"
     x="38.2"
     y="31.455"
     text-anchor="end"
     id="text24">−1</text>
  <path
     class="curve"
     d="m 8,22.5 0.971,-0.761 0.971,-0.775 0.972,-0.803 0.971,-0.851 0.971,-0.918 0.971,-1.014 0.972,-1.147 0.971,-1.334 0.23,-0.352 0.741,-1.25 0.971,-2.001 L 18.683,8.671 19.654,5"
     id="path27"
     clip-path="url(#clipPath32)" />
  <path
     class="curve"
     d="m 28.346,40 0.971,-3.671 0.971,-2.623 0.971,-2.001 0.741,-1.25 0.23,-0.352 0.972,-1.334 0.971,-1.147 0.971,-1.014 0.971,-0.918 0.972,-0.851 0.971,-0.803 0.971,-0.775 L 40,22.5 l 0.971,-0.761 0.971,-0.775 0.972,-0.803 0.971,-0.851 0.971,-0.918 0.971,-1.014 0.972,-1.147 0.971,-1.334 0.23,-0.352 0.741,-1.25 0.971,-2.001 L 50.683,8.671 51.654,5"
     id="path28"
     clip-path="url(#clipPath31)" />
  <path
     class="curve"
     d="m 60.346,40 0.971,-3.671 0.971,-2.623 0.971,-2.001 0.741,-1.25 0.23,-0.352 0.972,-1.334 0.971,-1.147 0.971,-1.014 0.971,-0.918 0.972,-0.851 0.971,-0.803 0.971,-0.775 L 72,22.5"
     id="path29"
     clip-path="url(#clipPath30)" />
  <line
     class="asymptote"
     x1="56.146156"
     y1="4.851079"
     x2="56.146156"
     y2="39.851082"
     id="line2-5"
     style="fill:none;stroke:#000000;stroke-width:0.32;stroke-linecap:round;stroke-dasharray:1.2, 1.4" />
  <line
     class="asymptote"
     x1="23.972992"
     y1="4.9367647"
     x2="23.972992"
     y2="39.936768"
     id="line2-5-2"
     style="fill:none;stroke:#000000;stroke-width:0.32;stroke-linecap:round;stroke-dasharray:1.2, 1.4" />
</svg>
