<?xml version="1.0" encoding="UTF-8" standalone="no"?>
<svg width="80mm" height="58mm" viewBox="0 0 80 58" version="1.1" xmlns="http://www.w3.org/2000/svg">
  <!-- X=40+8x, Y=52-5y。未知の点 E と二等分線 DE は描かない。 -->
  <defs><style><![CDATA[
    .main{stroke:#000;stroke-width:.55;fill:none;stroke-linecap:round;stroke-linejoin:round}.thin{stroke:#000;stroke-width:.32;fill:none;stroke-linecap:round;stroke-linejoin:round}.dash{stroke:#000;stroke-width:.32;fill:none;stroke-dasharray:1.2 1.4}
    .point{fill:#000}.fill{fill:#eee}.arrow{fill:#000}.label{font-family:"CMU Serif","Computer Modern Serif","Latin Modern Roman","Times New Roman",serif;font-size:4.1px;fill:#000}
    .axis{font-family:"CMU Serif","Computer Modern Serif","Latin Modern Roman","Times New Roman",serif;font-size:4.1px;font-style:italic;fill:#000}
  ]]></style></defs>
  <polygon class="fill" points="16,7 64,7 48,47"/>
  <line class="main" x1="4" y1="52" x2="75" y2="52"/><polygon class="arrow" points="77,52 74.3,51.05 74.3,52.95"/>
  <line class="main" x1="40" y1="56" x2="40" y2="4"/><polygon class="arrow" points="40,2 39.05,4.7 40.95,4.7"/>
  <text class="axis" x="73.5" y="49.2">x</text><text class="axis" x="42" y="5.5">y</text>
  <path class="thin" d="M 15.2,1.3 Q 40,102.7 64.8,1.3"/>
  <polygon class="main" points="16,7 64,7 48,47"/>
  <line class="dash" x1="48" y1="7" x2="48" y2="47"/><path class="thin" d="M 48,11 L 52,11 L 52,7"/>
  <circle class="point" cx="16" cy="7" r=".45"/><circle class="point" cx="64" cy="7" r=".45"/><circle class="point" cx="48" cy="47" r=".45"/><circle class="point" cx="48" cy="7" r=".45"/>
  <text class="label" x="11.8" y="11">A</text><text class="label" x="65" y="11">B</text><text class="label" x="49" y="46">C</text><text class="label" x="49" y="6">D</text><text class="label" x="35.8" y="56">O</text>
</svg>
