<?xml version="1.0" encoding="UTF-8" standalone="no"?>
<svg width="80mm" height="58mm" viewBox="0 0 80 58" version="1.1" xmlns="http://www.w3.org/2000/svg">
  <!-- X=35+10x, Y=8-9y。A,B,C は放物線上。二等分線は描かない。 -->
  <defs><style><![CDATA[
    .main{stroke:#000;stroke-width:.55;fill:none;stroke-linecap:round;stroke-linejoin:round}.thin{stroke:#000;stroke-width:.32;fill:none;stroke-linecap:round;stroke-linejoin:round}
    .point{fill:#000}.fill{fill:#eee}.arrow{fill:#000}.label{font-family:"CMU Serif","Computer Modern Serif","Latin Modern Roman","Times New Roman",serif;font-size:4.1px;fill:#000}
    .axis{font-family:"CMU Serif","Computer Modern Serif","Latin Modern Roman","Times New Roman",serif;font-size:4.1px;font-style:italic;fill:#000}
  ]]></style></defs>
  <polygon class="fill" points="25,17 45,17 55,44 35,44"/>
  <line class="main" x1="4" y1="8" x2="75" y2="8"/><polygon class="arrow" points="77,8 74.3,7.05 74.3,8.95"/>
  <line class="main" x1="35" y1="55" x2="35" y2="4"/><polygon class="arrow" points="35,2 34.05,4.7 35.95,4.7"/>
  <text class="axis" x="73.5" y="5.2">x</text><text class="axis" x="37" y="5.5">y</text>
  <path class="thin" d="M 12,55.6 Q 35,-39.6 58,55.6"/>
  <polygon class="main" points="25,17 45,17 55,44 35,44"/>
  <circle class="point" cx="25" cy="17" r=".45"/><circle class="point" cx="45" cy="17" r=".45"/><circle class="point" cx="55" cy="44" r=".45"/><circle class="point" cx="35" cy="44" r=".45"/>
  <circle class="point" cx="35" cy="8" r=".45"/>
  <text class="label" x="20.8" y="16">A</text><text class="label" x="46" y="16">B</text><text class="label" x="56" y="48">C</text><text class="label" x="30.8" y="48">D</text><text class="label" x="30.8" y="6.5">O</text>
</svg>
