<?xml version="1.0" encoding="UTF-8" standalone="no"?>
<svg width="68mm" height="52mm" viewBox="0 0 68 52" version="1.1"
  xmlns="http://www.w3.org/2000/svg" xmlns:svg="http://www.w3.org/2000/svg">
  <defs>
    <style><![CDATA[
      .main{stroke:#000;stroke-width:.55;fill:none;stroke-linecap:round;stroke-linejoin:round}
      .thin{stroke:#000;stroke-width:.32;fill:none;stroke-linecap:round;stroke-linejoin:round}
      .dash{stroke:#000;stroke-width:.32;fill:none;stroke-dasharray:1.2 1.4;stroke-linecap:round;stroke-linejoin:round}
      .point{fill:#000;stroke:none}
      .label,.math-label{font-family:"CMU Serif","Computer Modern Serif","Latin Modern Roman","Times New Roman",serif;fill:#000}
      .label{font-size:4.1px;font-style:normal}.math-label{font-size:3.6px;font-style:normal}.var{font-style:italic}
    ]]></style>
  </defs>
  <path class="main" d="M32,25 L10,3 L10,47 Z" />
  <rect class="main" x="32" y="13" width="32" height="24" />
  <path class="thin" d="M29.2,22.2 L26.4,25 L29.2,27.8" />
  <line class="dash" x1="20" y1="13" x2="20" y2="37" />
  <line class="dash" x1="20" y1="25" x2="32" y2="25" />
  <line class="thin" x1="38" y1="7" x2="57" y2="7" />
  <path class="thin" d="M54.8,6.2 L57,7 L54.8,7.8" />
  <circle class="point" cx="32" cy="25" r=".45" />
  <circle class="point" cx="10" cy="3" r=".45" />
  <circle class="point" cx="10" cy="47" r=".45" />
  <circle class="point" cx="32" cy="13" r=".45" />
  <circle class="point" cx="64" cy="13" r=".45" />
  <circle class="point" cx="64" cy="37" r=".45" />
  <circle class="point" cx="32" cy="37" r=".45" />
  <text class="label" x="5.5" y="4.5">Q</text>
  <text class="label" x="5.5" y="50.5">R</text>
  <text class="label" x="33.5" y="27">P=M</text>
  <text class="label" x="28" y="12">A</text>
  <text class="label" x="61" y="12">B</text>
  <text class="label" x="61" y="41">C</text>
  <text class="label" x="28" y="41">D</text>
  <text class="math-label" x="47" y="19">8 cm</text>
  <text class="math-label" x="59" y="31" transform="rotate(-90 59 31)">6 cm</text>
  <text class="math-label" x="25" y="23"><tspan class="var">u</tspan></text>
  <text class="math-label" x="16" y="27"><tspan>2</tspan><tspan class="var">u</tspan></text>
</svg>
